<?xml version="1.0" encoding="UTF-8" standalone="no"?>
<!DOCTYPE svg PUBLIC "-//W3C//DTD SVG 1.1//EN"
 "http://www.w3.org/Graphics/SVG/1.1/DTD/svg11.dtd">
<!-- Generated by graphviz version 2.38.0 (20140413.2041)
 -->
<!-- Title: G Pages: 1 -->
<svg width="2179pt" height="124pt"
 viewBox="0.00 0.00 2178.80 123.98" xmlns="http://www.w3.org/2000/svg" xmlns:xlink="http://www.w3.org/1999/xlink">
<g id="graph0" class="graph" transform="scale(1 1) rotate(0) translate(7.992 115.992)">
<title>G</title>
<polygon fill="#000000" stroke="none" points="-7.992,7.992 -7.992,-115.992 2170.81,-115.992 2170.81,7.992 -7.992,7.992"/>
<!-- index.js -->
<g id="node1" class="node"><title>index.js</title>
<ellipse fill="none" stroke="#c6c5fe" cx="1109.73" cy="-90" rx="42.4939" ry="18"/>
<text text-anchor="middle" x="1109.73" y="-86.3" font-family="Arial" font-size="14.00" fill="#c6c5fe">index.js</text>
</g>
<!-- ../node_modules/fun&#45;function/src/index.js -->
<g id="node2" class="node"><title>../node_modules/fun&#45;function/src/index.js</title>
<ellipse fill="none" stroke="#cfffac" cx="178.734" cy="-18" rx="178.969" ry="18"/>
<text text-anchor="middle" x="178.734" y="-14.3" font-family="Arial" font-size="14.00" fill="#cfffac">../node_modules/fun&#45;function/src/index.js</text>
</g>
<!-- index.js&#45;&gt;../node_modules/fun&#45;function/src/index.js -->
<g id="edge1" class="edge"><title>index.js&#45;&gt;../node_modules/fun&#45;function/src/index.js</title>
<path fill="none" stroke="#757575" d="M1068.23,-86.3165C955.444,-78.9647 633.879,-57.6045 366.734,-36 350.077,-34.6529 332.597,-33.168 315.282,-31.6536"/>
<polygon fill="#757575" stroke="#757575" points="315.383,-28.149 305.114,-30.7594 314.769,-35.1221 315.383,-28.149"/>
</g>
<!-- ../node_modules/fun&#45;object/src/index.js -->
<g id="node3" class="node"><title>../node_modules/fun&#45;object/src/index.js</title>
<ellipse fill="none" stroke="#cfffac" cx="547.734" cy="-18" rx="172.47" ry="18"/>
<text text-anchor="middle" x="547.734" y="-14.3" font-family="Arial" font-size="14.00" fill="#cfffac">../node_modules/fun&#45;object/src/index.js</text>
</g>
<!-- index.js&#45;&gt;../node_modules/fun&#45;object/src/index.js -->
<g id="edge2" class="edge"><title>index.js&#45;&gt;../node_modules/fun&#45;object/src/index.js</title>
<path fill="none" stroke="#757575" d="M1069.77,-84.0219C986.265,-73.6213 790.575,-49.247 663.939,-33.4739"/>
<polygon fill="#757575" stroke="#757575" points="664.162,-29.9747 653.806,-32.2118 663.296,-36.921 664.162,-29.9747"/>
</g>
<!-- ../node_modules/fun&#45;predicate/src/index.js -->
<g id="node4" class="node"><title>../node_modules/fun&#45;predicate/src/index.js</title>
<ellipse fill="none" stroke="#cfffac" cx="922.734" cy="-18" rx="185.467" ry="18"/>
<text text-anchor="middle" x="922.734" y="-14.3" font-family="Arial" font-size="14.00" fill="#cfffac">../node_modules/fun&#45;predicate/src/index.js</text>
</g>
<!-- index.js&#45;&gt;../node_modules/fun&#45;predicate/src/index.js -->
<g id="edge3" class="edge"><title>index.js&#45;&gt;../node_modules/fun&#45;predicate/src/index.js</title>
<path fill="none" stroke="#757575" d="M1078.85,-77.4409C1051.1,-67.05 1009.71,-51.5577 976.522,-39.1344"/>
<polygon fill="#757575" stroke="#757575" points="977.547,-35.7809 966.954,-35.553 975.093,-42.3367 977.547,-35.7809"/>
</g>
<!-- ../node_modules/fun&#45;scalar/src/index.js -->
<g id="node5" class="node"><title>../node_modules/fun&#45;scalar/src/index.js</title>
<ellipse fill="none" stroke="#cfffac" cx="1296.73" cy="-18" rx="170.87" ry="18"/>
<text text-anchor="middle" x="1296.73" y="-14.3" font-family="Arial" font-size="14.00" fill="#cfffac">../node_modules/fun&#45;scalar/src/index.js</text>
</g>
<!-- index.js&#45;&gt;../node_modules/fun&#45;scalar/src/index.js -->
<g id="edge4" class="edge"><title>index.js&#45;&gt;../node_modules/fun&#45;scalar/src/index.js</title>
<path fill="none" stroke="#757575" d="M1140.61,-77.4409C1168.47,-67.0147 1210.04,-51.4523 1243.28,-39.0078"/>
<polygon fill="#757575" stroke="#757575" points="1244.73,-42.2052 1252.87,-35.4216 1242.27,-35.6495 1244.73,-42.2052"/>
</g>
<!-- ../node_modules/fun&#45;type/src/index.js -->
<g id="node6" class="node"><title>../node_modules/fun&#45;type/src/index.js</title>
<ellipse fill="none" stroke="#cfffac" cx="1649.73" cy="-18" rx="164.371" ry="18"/>
<text text-anchor="middle" x="1649.73" y="-14.3" font-family="Arial" font-size="14.00" fill="#cfffac">../node_modules/fun&#45;type/src/index.js</text>
</g>
<!-- index.js&#45;&gt;../node_modules/fun&#45;type/src/index.js -->
<g id="edge5" class="edge"><title>index.js&#45;&gt;../node_modules/fun&#45;type/src/index.js</title>
<path fill="none" stroke="#757575" d="M1149.44,-83.8527C1230.4,-73.3575 1417.11,-49.1546 1538.14,-33.4665"/>
<polygon fill="#757575" stroke="#757575" points="1538.72,-36.9207 1548.18,-32.1641 1537.82,-29.9788 1538.72,-36.9207"/>
</g>
<!-- ../node_modules/guarded/src/index.js -->
<g id="node7" class="node"><title>../node_modules/guarded/src/index.js</title>
<ellipse fill="none" stroke="#cfffac" cx="1997.73" cy="-18" rx="165.171" ry="18"/>
<text text-anchor="middle" x="1997.73" y="-14.3" font-family="Arial" font-size="14.00" fill="#cfffac">../node_modules/guarded/src/index.js</text>
</g>
<!-- index.js&#45;&gt;../node_modules/guarded/src/index.js -->
<g id="edge6" class="edge"><title>index.js&#45;&gt;../node_modules/guarded/src/index.js</title>
<path fill="none" stroke="#757575" d="M1151.15,-86.2506C1260.79,-78.901 1567.66,-57.8669 1822.73,-36 1838.22,-34.6721 1854.48,-33.1998 1870.58,-31.693"/>
<polygon fill="#757575" stroke="#757575" points="1870.94,-35.1738 1880.57,-30.7513 1870.29,-28.2047 1870.94,-35.1738"/>
</g>
</g>
</svg>
